<svg class="gridItem__media" version="1.1" id="Layer_1" xmlns="http://www.w3.org/2000/svg" x="0px" y="0px" width="1600" height="1200" viewBox="0 0 1600 1200" style="baseline-shift: 0px; clip-rule: nonzero; color: rgb(61, 61, 61); color-interpolation: srgb; color-interpolation-filters: linearrgb; color-rendering: auto; cursor: auto; direction: ltr; display: block; fill: none; fill-opacity: 1; fill-rule: nonzero; font: 400 16px / 18.4px Lato, sans-serif; image-rendering: auto; letter-spacing: normal; marker: none; overflow: hidden; paint-order: normal; pointer-events: auto; shape-rendering: auto; stroke: none; stroke-dasharray: none; stroke-dashoffset: 0px; stroke-linecap: butt; stroke-linejoin: miter; stroke-miterlimit: 4; stroke-opacity: 1; stroke-width: 1px; text-anchor: start; text-decoration: none solid rgb(61, 61, 61); text-rendering: auto; visibility: visible; word-spacing: 0px; writing-mode: horizontal-tb;" fill="none" xmlns:xlink="http://www.w3.org/1999/xlink">
<path d="M1280.27 1011.66H288.56L183.64 610.07C180.61 598.48 181.12 586.25 185.11 574.95L295.11 263.06C303.06 240.51 323.65 224.83 347.51 223.16L1143.32 167.53C1168.91 165.74 1192.81 180.42 1202.78 204.06L1362.99 583.75C1367.81 595.18 1368.97 607.83 1366.31 619.95L1280.27 1011.66Z" fill="#F3F3F3" style="baseline-shift: 0px; fill: rgb(243, 243, 243); paint-order: normal; text-decoration: none solid rgb(61, 61, 61);"></path>
<path d="M731.52 552.71H350.36C344.26 552.71 339.31 547.76 339.31 541.66V284.7C339.31 278.6 344.26 273.65 350.36 273.65H731.52C737.62 273.65 742.57 278.6 742.57 284.7V541.67C742.57 547.77 737.63 552.71 731.52 552.71Z" fill="white" style="baseline-shift: 0px; fill: rgb(255, 255, 255); paint-order: normal; text-decoration: none solid rgb(61, 61, 61);"></path>
<path d="M726.09 290.119H355.79V536.369H726.09V290.119Z" fill="#ECECEC" style="baseline-shift: 0px; fill: rgb(236, 236, 236); paint-order: normal; text-decoration: none solid rgb(61, 61, 61);"></path>
<path d="M457.31 338.051H380.76V428.761H457.31V338.051Z" fill="white" style="baseline-shift: 0px; fill: rgb(255, 255, 255); paint-order: normal; text-decoration: none solid rgb(61, 61, 61);"></path>
<path opacity="0.15" d="M421.79 344.221C421.79 345.741 420.56 346.971 419.04 346.971C417.52 346.971 416.29 345.741 416.29 344.221C416.29 342.701 417.52 341.471 419.04 341.471C420.56 341.471 421.79 342.701 421.79 344.221Z" fill="black" style="baseline-shift: 0px; fill: rgb(0, 0, 0); opacity: 0.15; paint-order: normal; text-decoration: none solid rgb(61, 61, 61);"></path>
<path d="M605.94 384.02H515.36V491.35H605.94V384.02Z" fill="white" style="baseline-shift: 0px; fill: rgb(255, 255, 255); paint-order: normal; text-decoration: none solid rgb(61, 61, 61);"></path>
<path opacity="0.15" d="M563.4 398.5C563.4 400.02 562.17 401.25 560.65 401.25C559.13 401.25 557.9 400.02 557.9 398.5C557.9 396.98 559.13 395.75 560.65 395.75C562.17 395.75 563.4 396.98 563.4 398.5Z" fill="black" style="baseline-shift: 0px; fill: rgb(0, 0, 0); opacity: 0.15; paint-order: normal; text-decoration: none solid rgb(61, 61, 61);"></path>
<path d="M496.33 313.119H450.27V359.179H496.33V313.119Z" fill="#D9DCDE" style="baseline-shift: 0px; fill: rgb(217, 220, 222); paint-order: normal; text-decoration: none solid rgb(61, 61, 61);"></path>
<path d="M476.05 317.789C476.05 319.309 474.82 320.539 473.3 320.539C471.78 320.539 470.55 319.309 470.55 317.789C470.55 316.269 471.78 315.039 473.3 315.039C474.82 315.039 476.05 316.269 476.05 317.789Z" fill="#B1B5BA" style="baseline-shift: 0px; fill: rgb(177, 181, 186); paint-order: normal; text-decoration: none solid rgb(61, 61, 61);"></path>
<path opacity="0.15" d="M421.79 344.221C421.79 345.741 420.56 346.971 419.04 346.971C417.52 346.971 416.29 345.741 416.29 344.221C416.29 342.701 417.52 341.471 419.04 341.471C420.56 341.471 421.79 342.701 421.79 344.221Z" fill="black" style="baseline-shift: 0px; fill: rgb(0, 0, 0); opacity: 0.15; paint-order: normal; text-decoration: none solid rgb(61, 61, 61);"></path>
<path opacity="0.15" d="M563.4 398.5C563.4 400.02 562.17 401.25 560.65 401.25C559.13 401.25 557.9 400.02 557.9 398.5C557.9 396.98 559.13 395.75 560.65 395.75C562.17 395.75 563.4 396.98 563.4 398.5Z" fill="black" style="baseline-shift: 0px; fill: rgb(0, 0, 0); opacity: 0.15; paint-order: normal; text-decoration: none solid rgb(61, 61, 61);"></path>
<path opacity="0.15" d="M476.05 317.789C476.05 319.309 474.82 320.539 473.3 320.539C471.78 320.539 470.55 319.309 470.55 317.789C470.55 316.269 471.78 315.039 473.3 315.039C474.82 315.039 476.05 316.269 476.05 317.789Z" fill="black" style="baseline-shift: 0px; fill: rgb(0, 0, 0); opacity: 0.15; paint-order: normal; text-decoration: none solid rgb(61, 61, 61);"></path>
<path d="M782.62 693.33H285.31V956.99H782.62V693.33Z" fill="#D9DCDE" style="baseline-shift: 0px; fill: rgb(217, 220, 222); paint-order: normal; text-decoration: none solid rgb(61, 61, 61);"></path>
<path d="M770.56 944.931V705.391H297.37V944.931H770.56Z" fill="#F3F3F3" style="baseline-shift: 0px; fill: rgb(243, 243, 243); paint-order: normal; text-decoration: none solid rgb(61, 61, 61);"></path>
<path d="M769.88 944.931V705.391H297.37V944.931H769.88Z" fill="#F3F3F3" style="baseline-shift: 0px; fill: rgb(243, 243, 243); paint-order: normal; text-decoration: none solid rgb(61, 61, 61);"></path>
<path d="M812.62 956.99V693.33H782.61V956.99H812.62Z" fill="#B1B5BA" style="baseline-shift: 0px; fill: rgb(177, 181, 186); paint-order: normal; text-decoration: none solid rgb(61, 61, 61);"></path>
<path d="M770.56 831.591V818.73H297.37V831.591H770.56Z" fill="#D9DCDE" style="baseline-shift: 0px; fill: rgb(217, 220, 222); paint-order: normal; text-decoration: none solid rgb(61, 61, 61);"></path>
<path d="M365.35 714.15H340.16V818.73H365.35V714.15Z" fill="#B1B5BA" style="baseline-shift: 0px; fill: rgb(177, 181, 186); paint-order: normal; text-decoration: none solid rgb(61, 61, 61);"></path>
<path d="M365.35 818.73H432.68V714.15H365.35V818.73Z" fill="#D9DCDE" style="baseline-shift: 0px; fill: rgb(217, 220, 222); paint-order: normal; text-decoration: none solid rgb(61, 61, 61);"></path>
<path d="M387.71 726.119H373.52V818.729H387.71V726.119Z" fill="#B1B5BA" style="baseline-shift: 0px; fill: rgb(177, 181, 186); paint-order: normal; text-decoration: none solid rgb(61, 61, 61);"></path>
<path d="M387.71 818.719H425.64V726.109H387.71V818.719Z" fill="#D9DCDE" style="baseline-shift: 0px; fill: rgb(217, 220, 222); paint-order: normal; text-decoration: none solid rgb(61, 61, 61);"></path>
<path d="M430.88 818.729H409.86L397.75 731.449H418.77L430.88 818.729Z" fill="#B1B5BA" style="baseline-shift: 0px; fill: rgb(177, 181, 186); paint-order: normal; text-decoration: none solid rgb(61, 61, 61);"></path>
<path d="M430.88 818.729H487.07L474.96 731.449H418.77L430.88 818.729Z" fill="#D9DCDE" style="baseline-shift: 0px; fill: rgb(217, 220, 222); paint-order: normal; text-decoration: none solid rgb(61, 61, 61);"></path>
<path d="M346.39 944.93H325.37L313.26 857.66H334.28L346.39 944.93Z" fill="#B1B5BA" style="baseline-shift: 0px; fill: rgb(177, 181, 186); paint-order: normal; text-decoration: none solid rgb(61, 61, 61);"></path>
<path d="M346.39 944.93H402.58L390.47 857.66H334.28L346.39 944.93Z" fill="#D9DCDE" style="baseline-shift: 0px; fill: rgb(217, 220, 222); paint-order: normal; text-decoration: none solid rgb(61, 61, 61);"></path>
<path d="M648.27 944.931V917.801H519.15V944.931H648.27Z" fill="#D9DCDE" style="baseline-shift: 0px; fill: rgb(217, 220, 222); paint-order: normal; text-decoration: none solid rgb(61, 61, 61);"></path>
<path d="M610.22 896.651V874.721H519.15V896.651H610.22Z" fill="#D9DCDE" style="baseline-shift: 0px; fill: rgb(217, 220, 222); paint-order: normal; text-decoration: none solid rgb(61, 61, 61);"></path>
<path d="M631.78 917.81V896.66H519.15V917.81H631.78Z" fill="#D9DCDE" style="baseline-shift: 0px; fill: rgb(217, 220, 222); paint-order: normal; text-decoration: none solid rgb(61, 61, 61);"></path>
<path d="M625.64 734H605.23V818.73H625.64V734Z" fill="#B1B5BA" style="baseline-shift: 0px; fill: rgb(177, 181, 186); paint-order: normal; text-decoration: none solid rgb(61, 61, 61);"></path>
<path d="M625.63 818.73H680.18V734H625.63V818.73Z" fill="#D9DCDE" style="baseline-shift: 0px; fill: rgb(217, 220, 222); paint-order: normal; text-decoration: none solid rgb(61, 61, 61);"></path>
<path d="M670.75 743.689H651.16V818.729H670.75V743.689Z" fill="#B1B5BA" style="baseline-shift: 0px; fill: rgb(177, 181, 186); paint-order: normal; text-decoration: none solid rgb(61, 61, 61);"></path>
<path d="M670.75 818.729H704.25V743.689H670.75V818.729Z" fill="#D9DCDE" style="baseline-shift: 0px; fill: rgb(217, 220, 222); paint-order: normal; text-decoration: none solid rgb(61, 61, 61);"></path>
<path d="M610.22 893H519.15V896.66H610.22V893Z" fill="#B1B5BA" style="baseline-shift: 0px; fill: rgb(177, 181, 186); paint-order: normal; text-decoration: none solid rgb(61, 61, 61);"></path>
<path d="M631.78 914.15H519.15V917.81H631.78V914.15Z" fill="#B1B5BA" style="baseline-shift: 0px; fill: rgb(177, 181, 186); paint-order: normal; text-decoration: none solid rgb(61, 61, 61);"></path>
<path d="M648.27 941.279H519.15V944.939H648.27V941.279Z" fill="#B1B5BA" style="baseline-shift: 0px; fill: rgb(177, 181, 186); paint-order: normal; text-decoration: none solid rgb(61, 61, 61);"></path>
<path d="M1280.26 339.9H940.04V349.64H1280.26V339.9Z" fill="white" style="baseline-shift: 0px; fill: rgb(255, 255, 255); paint-order: normal; text-decoration: none solid rgb(61, 61, 61);"></path>
<path d="M805.45 956.99L810.08 1008.38C810.44 1010.25 809.01 1012.03 807.14 1012.03C805.89 1012.03 804.74 1011.23 804.29 1009.98L790.84 956.99H805.45Z" fill="#D9DCDE" style="baseline-shift: 0px; fill: rgb(217, 220, 222); paint-order: normal; text-decoration: none solid rgb(61, 61, 61);"></path>
<path d="M803.76 986.92L798.15 985.58L790.94 957.08H805.55L810.18 1008.47C810.45 1009.89 809.65 1011.32 808.4 1011.85L803.76 986.92Z" fill="#B1B5BA" style="baseline-shift: 0px; fill: rgb(177, 181, 186); paint-order: normal; text-decoration: none solid rgb(61, 61, 61);"></path>
<path d="M752.99 956.99L757.62 1008.38C757.98 1010.25 756.55 1012.03 754.68 1012.03C753.43 1012.03 752.28 1011.23 751.83 1009.98L738.38 956.99H752.99Z" fill="#D9DCDE" style="baseline-shift: 0px; fill: rgb(217, 220, 222); paint-order: normal; text-decoration: none solid rgb(61, 61, 61);"></path>
<path d="M748.1 962.69L739.73 961.09L738.3 956.99H752.91L757.54 1008.38C757.81 1009.8 757.01 1011.23 755.76 1011.76L748.1 962.69Z" fill="#B1B5BA" style="baseline-shift: 0px; fill: rgb(177, 181, 186); paint-order: normal; text-decoration: none solid rgb(61, 61, 61);"></path>
<path d="M363.96 956.99L359.33 1008.38C358.97 1010.25 360.4 1012.03 362.27 1012.03C363.52 1012.03 364.67 1011.23 365.12 1009.98L378.57 956.99H363.96Z" fill="#D9DCDE" style="baseline-shift: 0px; fill: rgb(217, 220, 222); paint-order: normal; text-decoration: none solid rgb(61, 61, 61);"></path>
<path d="M366.54 984.331L361.55 983.081L363.95 956.98H378.56L365.11 1009.97C364.66 1011.22 363.51 1012.02 362.26 1012.02C362.17 1012.02 362.17 1012.02 362.08 1012.02L366.54 984.331Z" fill="#B1B5BA" style="baseline-shift: 0px; fill: rgb(177, 181, 186); paint-order: normal; text-decoration: none solid rgb(61, 61, 61);"></path>
<path d="M310.08 956.99L305.45 1008.38C305.09 1010.25 306.52 1012.03 308.39 1012.03C309.64 1012.03 310.79 1011.23 311.24 1009.98L324.69 956.99H310.08Z" fill="#D9DCDE" style="baseline-shift: 0px; fill: rgb(217, 220, 222); paint-order: normal; text-decoration: none solid rgb(61, 61, 61);"></path>
<path d="M315.78 961.44L309.37 960.281L310.08 956.98H324.69L311.24 1009.97C310.79 1011.22 309.64 1012.02 308.39 1012.02C308.3 1012.02 308.3 1012.02 308.21 1012.02L315.78 961.44Z" fill="#B1B5BA" style="baseline-shift: 0px; fill: rgb(177, 181, 186); paint-order: normal; text-decoration: none solid rgb(61, 61, 61);"></path>
<path d="M704.25 741.051H651.16V743.701H704.25V741.051Z" fill="#B1B5BA" style="baseline-shift: 0px; fill: rgb(177, 181, 186); paint-order: normal; text-decoration: none solid rgb(61, 61, 61);"></path>
<path opacity="0.15" d="M704.25 741.051H651.16V743.701H704.25V741.051Z" fill="black" style="baseline-shift: 0px; fill: rgb(0, 0, 0); opacity: 0.15; paint-order: normal; text-decoration: none solid rgb(61, 61, 61);"></path>
<path opacity="0.15" d="M432.68 724.109H373.52V726.119H432.68V724.109V724.109Z" fill="black" style="baseline-shift: 0px; fill: rgb(0, 0, 0); opacity: 0.15; paint-order: normal; text-decoration: none solid rgb(61, 61, 61);"></path>
<path d="M418.77 731.45H432.68V729.51H397.46L397.75 731.45H418.77Z" fill="#B1B5BA" style="baseline-shift: 0px; fill: rgb(177, 181, 186); paint-order: normal; text-decoration: none solid rgb(61, 61, 61);"></path>
<path opacity="0.15" d="M432.68 724.109H373.52V726.119H432.68V724.109V724.109Z" fill="black" style="baseline-shift: 0px; fill: rgb(0, 0, 0); opacity: 0.15; paint-order: normal; text-decoration: none solid rgb(61, 61, 61);"></path>
<path opacity="0.15" d="M418.77 731.45H432.68V729.51H397.46L397.75 731.45H418.77Z" fill="black" style="baseline-shift: 0px; fill: rgb(0, 0, 0); opacity: 0.15; paint-order: normal; text-decoration: none solid rgb(61, 61, 61);"></path>
<path d="M946.85 401.401L844.53 511.061C836.92 519.221 823.32 515.331 821.07 504.431L809.89 448.331L839.79 379.381L851.15 451.411L923.44 390.511L946.85 401.401Z" fill="#FB9C9C" style="baseline-shift: 0px; fill: rgb(251, 156, 156); paint-order: normal; text-decoration: none solid rgb(61, 61, 61);"></path>
<path d="M1210.06 1012.86H889.88C881.94 1012.86 875.61 1006.43 875.61 998.589V412.889C875.61 404.949 882.04 398.619 889.88 398.619H1210.06C1218 398.619 1224.33 405.049 1224.33 412.889V998.589C1224.33 1006.53 1218 1012.86 1210.06 1012.86Z" class="change-color-in-svg" fill="#4D61FC" style="fill: rgb(0, 0, 0); baseline-shift: 0px; paint-order: normal; text-decoration: none solid rgb(61, 61, 61);"></path>
<path opacity="0.5" d="M1210.06 1012.86H889.88C881.94 1012.86 875.61 1006.43 875.61 998.589V412.889C875.61 404.949 882.04 398.619 889.88 398.619H1210.06C1218 398.619 1224.33 405.049 1224.33 412.889V998.589C1224.33 1006.53 1218 1012.86 1210.06 1012.86Z" fill="white" style="baseline-shift: 0px; fill: rgb(255, 255, 255); opacity: 0.5; paint-order: normal; text-decoration: none solid rgb(61, 61, 61);"></path>
<path d="M1200.21 1012.86H880.04C872.1 1012.86 865.77 1006.43 865.77 998.589V412.889C865.77 404.949 872.2 398.619 880.04 398.619H1200.22C1208.16 398.619 1214.49 405.049 1214.49 412.889V998.589C1214.48 1006.53 1208.15 1012.86 1200.21 1012.86Z" class="change-color-in-svg" fill="#4D61FC" style="fill: rgb(0, 0, 0); baseline-shift: 0px; paint-order: normal; text-decoration: none solid rgb(61, 61, 61);"></path>
<path opacity="0.7" d="M1200.21 1012.86H880.04C872.1 1012.86 865.77 1006.43 865.77 998.589V412.889C865.77 404.949 872.2 398.619 880.04 398.619H1200.22C1208.16 398.619 1214.49 405.049 1214.49 412.889V998.589C1214.48 1006.53 1208.15 1012.86 1200.21 1012.86Z" fill="white" style="baseline-shift: 0px; fill: rgb(255, 255, 255); opacity: 0.7; paint-order: normal; text-decoration: none solid rgb(61, 61, 61);"></path>
<path d="M1154.94 600.511H941.49C939.13 600.511 937.28 598.601 937.28 596.301V529.921C937.28 527.561 939.19 525.711 941.49 525.711H1154.95C1157.31 525.711 1159.16 527.621 1159.16 529.921V596.301C1159.15 598.661 1157.3 600.511 1154.94 600.511Z" class="change-color-in-svg" fill="#4D61FC" style="fill: rgb(0, 0, 0); baseline-shift: 0px; paint-order: normal; text-decoration: none solid rgb(61, 61, 61);"></path>
<path opacity="0.5" d="M1154.94 600.511H941.49C939.13 600.511 937.28 598.601 937.28 596.301V529.921C937.28 527.561 939.19 525.711 941.49 525.711H1154.95C1157.31 525.711 1159.16 527.621 1159.16 529.921V596.301C1159.15 598.661 1157.3 600.511 1154.94 600.511Z" fill="white" style="baseline-shift: 0px; fill: rgb(255, 255, 255); opacity: 0.5; paint-order: normal; text-decoration: none solid rgb(61, 61, 61);"></path>
<path d="M1149.44 600.511H935.98C933.62 600.511 931.77 598.601 931.77 596.301V529.921C931.77 527.561 933.68 525.711 935.98 525.711H1149.44C1151.8 525.711 1153.65 527.621 1153.65 529.921V596.301C1153.71 598.661 1151.8 600.511 1149.44 600.511Z" fill="white" style="baseline-shift: 0px; fill: rgb(255, 255, 255); paint-order: normal; text-decoration: none solid rgb(61, 61, 61);"></path>
<path d="M1096.37 553.809H1033.61C1031.37 553.809 1029.61 552.289 1029.61 550.499C1029.61 548.649 1031.44 547.189 1033.61 547.189H1096.37C1098.61 547.189 1100.37 548.709 1100.37 550.499C1100.37 552.349 1098.61 553.809 1096.37 553.809Z" fill="#61656D" style="baseline-shift: 0px; fill: rgb(97, 101, 109); paint-order: normal; text-decoration: none solid rgb(61, 61, 61);"></path>
<path d="M1127.14 566.781H1031.71C1030.56 566.781 1029.61 565.991 1029.61 565.041C1029.61 564.091 1030.56 563.301 1031.71 563.301H1127.14C1128.29 563.301 1129.24 564.091 1129.24 565.041C1129.31 566.001 1128.29 566.781 1127.14 566.781Z" fill="#B0B4B9" style="baseline-shift: 0px; fill: rgb(176, 180, 185); paint-order: normal; text-decoration: none solid rgb(61, 61, 61);"></path>
<path d="M1088.58 577.57H1031.72C1030.57 577.57 1029.62 576.78 1029.62 575.83C1029.62 574.88 1030.57 574.09 1031.72 574.09H1088.58C1089.73 574.09 1090.68 574.88 1090.68 575.83C1090.68 576.78 1089.73 577.57 1088.58 577.57Z" fill="#B0B4B9" style="baseline-shift: 0px; fill: rgb(176, 180, 185); paint-order: normal; text-decoration: none solid rgb(61, 61, 61);"></path>
<path d="M985.17 539.52H980.68V539.969C970.23 542.049 962.32 551.31 962.32 562.38C962.32 573.44 970.18 582.709 980.68 584.789V585.24H985.17C997.81 585.24 1008.03 575.02 1008.03 562.38C1008.02 549.74 997.8 539.52 985.17 539.52Z" class="change-color-in-svg" fill="#4D61FC" style="fill: rgb(0, 0, 0); baseline-shift: 0px; paint-order: normal; text-decoration: none solid rgb(61, 61, 61);"></path>
<path d="M980.67 585.181C993.29 585.181 1003.53 574.941 1003.53 562.321C1003.53 549.701 993.29 539.461 980.67 539.461C968.05 539.461 957.81 549.691 957.81 562.321C957.81 574.951 968.04 585.181 980.67 585.181Z" class="change-color-in-svg" fill="#4D61FC" style="fill: rgb(0, 0, 0); baseline-shift: 0px; paint-order: normal; text-decoration: none solid rgb(61, 61, 61);"></path>
<path opacity="0.4" d="M980.67 585.181C993.29 585.181 1003.53 574.941 1003.53 562.321C1003.53 549.701 993.29 539.461 980.67 539.461C968.05 539.461 957.81 549.691 957.81 562.321C957.81 574.951 968.04 585.181 980.67 585.181Z" fill="white" style="baseline-shift: 0px; fill: rgb(255, 255, 255); opacity: 0.4; paint-order: normal; text-decoration: none solid rgb(61, 61, 61);"></path>
<path d="M976.41 571.871L968.72 564.181C968.33 563.791 968.33 563.111 968.72 562.661L970.74 560.641C971.13 560.251 971.81 560.251 972.26 560.641L977.2 565.581L989.11 553.621C989.5 553.231 990.18 553.231 990.63 553.621L992.65 555.641C993.04 556.031 993.04 556.711 992.65 557.161L977.94 571.871C977.53 572.311 976.86 572.311 976.41 571.871Z" fill="white" style="baseline-shift: 0px; fill: rgb(255, 255, 255); paint-order: normal; text-decoration: none solid rgb(61, 61, 61);"></path>
<path d="M1154.94 718.3H941.49C939.13 718.3 937.28 716.39 937.28 714.09V647.71C937.28 645.35 939.19 643.5 941.49 643.5H1154.95C1157.31 643.5 1159.16 645.41 1159.16 647.71V714.09C1159.15 716.45 1157.3 718.3 1154.94 718.3Z" class="change-color-in-svg" fill="#4D61FC" style="fill: rgb(0, 0, 0); baseline-shift: 0px; paint-order: normal; text-decoration: none solid rgb(61, 61, 61);"></path>
<path opacity="0.5" d="M1154.94 718.3H941.49C939.13 718.3 937.28 716.39 937.28 714.09V647.71C937.28 645.35 939.19 643.5 941.49 643.5H1154.95C1157.31 643.5 1159.16 645.41 1159.16 647.71V714.09C1159.15 716.45 1157.3 718.3 1154.94 718.3Z" fill="white" style="baseline-shift: 0px; fill: rgb(255, 255, 255); opacity: 0.5; paint-order: normal; text-decoration: none solid rgb(61, 61, 61);"></path>
<path d="M1149.44 718.3H935.98C933.62 718.3 931.77 716.39 931.77 714.09V647.71C931.77 645.35 933.68 643.5 935.98 643.5H1149.44C1151.8 643.5 1153.65 645.41 1153.65 647.71V714.09C1153.71 716.45 1151.8 718.3 1149.44 718.3Z" fill="white" style="baseline-shift: 0px; fill: rgb(255, 255, 255); paint-order: normal; text-decoration: none solid rgb(61, 61, 61);"></path>
<path d="M1096.37 671.6H1033.61C1031.37 671.6 1029.61 670.08 1029.61 668.29C1029.61 666.44 1031.44 664.98 1033.61 664.98H1096.37C1098.61 664.98 1100.37 666.5 1100.37 668.29C1100.37 670.14 1098.61 671.6 1096.37 671.6Z" fill="#61656D" style="baseline-shift: 0px; fill: rgb(97, 101, 109); paint-order: normal; text-decoration: none solid rgb(61, 61, 61);"></path>
<path d="M1127.14 684.57H1031.71C1030.56 684.57 1029.61 683.78 1029.61 682.83C1029.61 681.88 1030.56 681.09 1031.71 681.09H1127.14C1128.29 681.09 1129.24 681.88 1129.24 682.83C1129.31 683.79 1128.29 684.57 1127.14 684.57Z" fill="#B0B4B9" style="baseline-shift: 0px; fill: rgb(176, 180, 185); paint-order: normal; text-decoration: none solid rgb(61, 61, 61);"></path>
<path d="M1088.58 695.349H1031.72C1030.57 695.349 1029.62 694.559 1029.62 693.609C1029.62 692.659 1030.57 691.869 1031.72 691.869H1088.58C1089.73 691.869 1090.68 692.659 1090.68 693.609C1090.68 694.569 1089.73 695.349 1088.58 695.349Z" fill="#B0B4B9" style="baseline-shift: 0px; fill: rgb(176, 180, 185); paint-order: normal; text-decoration: none solid rgb(61, 61, 61);"></path>
<path d="M985.17 657.311H980.68V657.761C970.23 659.841 962.32 669.101 962.32 680.171C962.32 691.241 970.18 700.501 980.68 702.581V703.031H985.17C997.81 703.031 1008.03 692.811 1008.03 680.171C1008.02 667.531 997.8 657.311 985.17 657.311Z" class="change-color-in-svg" fill="#4D61FC" style="fill: rgb(0, 0, 0); baseline-shift: 0px; paint-order: normal; text-decoration: none solid rgb(61, 61, 61);"></path>
<path d="M980.67 702.97C993.29 702.97 1003.53 692.74 1003.53 680.11C1003.53 667.48 993.29 657.25 980.67 657.25C968.05 657.25 957.81 667.48 957.81 680.11C957.81 692.74 968.04 702.97 980.67 702.97Z" class="change-color-in-svg" fill="#4D61FC" style="fill: rgb(0, 0, 0); baseline-shift: 0px; paint-order: normal; text-decoration: none solid rgb(61, 61, 61);"></path>
<path opacity="0.4" d="M980.67 702.97C993.29 702.97 1003.53 692.74 1003.53 680.11C1003.53 667.48 993.29 657.25 980.67 657.25C968.05 657.25 957.81 667.48 957.81 680.11C957.81 692.74 968.04 702.97 980.67 702.97Z" fill="white" style="baseline-shift: 0px; fill: rgb(255, 255, 255); opacity: 0.4; paint-order: normal; text-decoration: none solid rgb(61, 61, 61);"></path>
<path d="M976.41 689.65L968.72 681.96C968.33 681.57 968.33 680.89 968.72 680.44L970.74 678.42C971.13 678.03 971.81 678.03 972.26 678.42L977.2 683.36L989.11 671.4C989.5 671.01 990.18 671.01 990.63 671.4L992.65 673.42C993.04 673.81 993.04 674.49 992.65 674.94L977.94 689.65C977.53 690.1 976.86 690.1 976.41 689.65Z" fill="white" style="baseline-shift: 0px; fill: rgb(255, 255, 255); paint-order: normal; text-decoration: none solid rgb(61, 61, 61);"></path>
<path d="M1154.94 836.089H941.49C939.13 836.089 937.28 834.179 937.28 831.879V765.499C937.28 763.139 939.19 761.289 941.49 761.289H1154.95C1157.31 761.289 1159.16 763.199 1159.16 765.499V831.879C1159.15 834.229 1157.3 836.089 1154.94 836.089Z" class="change-color-in-svg" fill="#4D61FC" style="fill: rgb(0, 0, 0); baseline-shift: 0px; paint-order: normal; text-decoration: none solid rgb(61, 61, 61);"></path>
<path opacity="0.5" d="M1154.94 836.089H941.49C939.13 836.089 937.28 834.179 937.28 831.879V765.499C937.28 763.139 939.19 761.289 941.49 761.289H1154.95C1157.31 761.289 1159.16 763.199 1159.16 765.499V831.879C1159.15 834.229 1157.3 836.089 1154.94 836.089Z" fill="white" style="baseline-shift: 0px; fill: rgb(255, 255, 255); opacity: 0.5; paint-order: normal; text-decoration: none solid rgb(61, 61, 61);"></path>
<path d="M1149.44 836.089H935.98C933.62 836.089 931.77 834.179 931.77 831.879V765.499C931.77 763.139 933.68 761.289 935.98 761.289H1149.44C1151.8 761.289 1153.65 763.199 1153.65 765.499V831.879C1153.71 834.229 1151.8 836.089 1149.44 836.089Z" fill="white" style="baseline-shift: 0px; fill: rgb(255, 255, 255); paint-order: normal; text-decoration: none solid rgb(61, 61, 61);"></path>
<path d="M1096.37 789.39H1033.61C1031.37 789.39 1029.61 787.87 1029.61 786.08C1029.61 784.23 1031.44 782.77 1033.61 782.77H1096.37C1098.61 782.77 1100.37 784.29 1100.37 786.08C1100.37 787.93 1098.61 789.39 1096.37 789.39Z" fill="#61656D" style="baseline-shift: 0px; fill: rgb(97, 101, 109); paint-order: normal; text-decoration: none solid rgb(61, 61, 61);"></path>
<path d="M1127.14 802.361H1031.71C1030.56 802.361 1029.61 801.571 1029.61 800.621C1029.61 799.671 1030.56 798.881 1031.71 798.881H1127.14C1128.29 798.881 1129.24 799.671 1129.24 800.621C1129.31 801.581 1128.29 802.361 1127.14 802.361Z" fill="#B0B4B9" style="baseline-shift: 0px; fill: rgb(176, 180, 185); paint-order: normal; text-decoration: none solid rgb(61, 61, 61);"></path>
<path d="M1088.58 813.14H1031.72C1030.57 813.14 1029.62 812.35 1029.62 811.4C1029.62 810.45 1030.57 809.66 1031.72 809.66H1088.58C1089.73 809.66 1090.68 810.45 1090.68 811.4C1090.68 812.36 1089.73 813.14 1088.58 813.14Z" fill="#B0B4B9" style="baseline-shift: 0px; fill: rgb(176, 180, 185); paint-order: normal; text-decoration: none solid rgb(61, 61, 61);"></path>
<path d="M985.17 775.1H980.68V775.55C970.23 777.63 962.32 786.89 962.32 797.96C962.32 809.02 970.18 818.29 980.68 820.37V820.82H985.17C997.81 820.82 1008.03 810.6 1008.03 797.96C1008.02 785.32 997.8 775.1 985.17 775.1Z" class="change-color-in-svg" fill="#4D61FC" style="fill: rgb(0, 0, 0); baseline-shift: 0px; paint-order: normal; text-decoration: none solid rgb(61, 61, 61);"></path>
<path d="M980.67 820.759C993.29 820.759 1003.53 810.529 1003.53 797.899C1003.53 785.269 993.29 775.039 980.67 775.039C968.05 775.039 957.81 785.269 957.81 797.899C957.81 810.529 968.04 820.759 980.67 820.759Z" class="change-color-in-svg" fill="#4D61FC" style="fill: rgb(0, 0, 0); baseline-shift: 0px; paint-order: normal; text-decoration: none solid rgb(61, 61, 61);"></path>
<path opacity="0.4" d="M980.67 820.759C993.29 820.759 1003.53 810.529 1003.53 797.899C1003.53 785.269 993.29 775.039 980.67 775.039C968.05 775.039 957.81 785.269 957.81 797.899C957.81 810.529 968.04 820.759 980.67 820.759Z" fill="white" style="baseline-shift: 0px; fill: rgb(255, 255, 255); opacity: 0.4; paint-order: normal; text-decoration: none solid rgb(61, 61, 61);"></path>
<path d="M976.41 807.441L968.72 799.751C968.33 799.361 968.33 798.681 968.72 798.231L970.74 796.211C971.13 795.821 971.81 795.821 972.26 796.211L977.2 801.151L989.11 789.191C989.5 788.801 990.18 788.801 990.63 789.191L992.65 791.211C993.04 791.601 993.04 792.281 992.65 792.731L977.94 807.441C977.53 807.891 976.86 807.891 976.41 807.441Z" fill="white" style="baseline-shift: 0px; fill: rgb(255, 255, 255); paint-order: normal; text-decoration: none solid rgb(61, 61, 61);"></path>
<path d="M1154.94 956.39H941.49C939.13 956.39 937.28 954.48 937.28 952.18V885.8C937.28 883.44 939.19 881.59 941.49 881.59H1154.95C1157.31 881.59 1159.16 883.5 1159.16 885.8V952.18C1159.15 954.54 1157.3 956.39 1154.94 956.39Z" class="change-color-in-svg" fill="#4D61FC" style="fill: rgb(0, 0, 0); baseline-shift: 0px; paint-order: normal; text-decoration: none solid rgb(61, 61, 61);"></path>
<path opacity="0.5" d="M1154.94 956.39H941.49C939.13 956.39 937.28 954.48 937.28 952.18V885.8C937.28 883.44 939.19 881.59 941.49 881.59H1154.95C1157.31 881.59 1159.16 883.5 1159.16 885.8V952.18C1159.15 954.54 1157.3 956.39 1154.94 956.39Z" fill="white" style="baseline-shift: 0px; fill: rgb(255, 255, 255); opacity: 0.5; paint-order: normal; text-decoration: none solid rgb(61, 61, 61);"></path>
<path d="M1149.44 956.39H935.98C933.62 956.39 931.77 954.48 931.77 952.18V885.8C931.77 883.44 933.68 881.59 935.98 881.59H1149.44C1151.8 881.59 1153.65 883.5 1153.65 885.8V952.18C1153.71 954.54 1151.8 956.39 1149.44 956.39Z" fill="white" style="baseline-shift: 0px; fill: rgb(255, 255, 255); paint-order: normal; text-decoration: none solid rgb(61, 61, 61);"></path>
<path d="M1096.37 909.69H1033.61C1031.37 909.69 1029.61 908.17 1029.61 906.38C1029.61 904.53 1031.44 903.07 1033.61 903.07H1096.37C1098.61 903.07 1100.37 904.59 1100.37 906.38C1100.37 908.23 1098.61 909.69 1096.37 909.69Z" fill="#61656D" style="baseline-shift: 0px; fill: rgb(97, 101, 109); paint-order: normal; text-decoration: none solid rgb(61, 61, 61);"></path>
<path d="M1127.14 922.66H1031.71C1030.56 922.66 1029.61 921.87 1029.61 920.92C1029.61 919.97 1030.56 919.18 1031.71 919.18H1127.14C1128.29 919.18 1129.24 919.97 1129.24 920.92C1129.31 921.88 1128.29 922.66 1127.14 922.66Z" fill="#B0B4B9" style="baseline-shift: 0px; fill: rgb(176, 180, 185); paint-order: normal; text-decoration: none solid rgb(61, 61, 61);"></path>
<path d="M1088.58 933.451H1031.72C1030.57 933.451 1029.62 932.661 1029.62 931.711C1029.62 930.761 1030.57 929.971 1031.72 929.971H1088.58C1089.73 929.971 1090.68 930.761 1090.68 931.711C1090.68 932.661 1089.73 933.451 1088.58 933.451Z" fill="#B0B4B9" style="baseline-shift: 0px; fill: rgb(176, 180, 185); paint-order: normal; text-decoration: none solid rgb(61, 61, 61);"></path>
<path d="M985.17 895.4H980.68V895.85C970.23 897.93 962.32 907.19 962.32 918.26C962.32 929.33 970.18 938.59 980.68 940.67V941.12H985.17C997.81 941.12 1008.03 930.9 1008.03 918.26C1008.02 905.62 997.8 895.4 985.17 895.4Z" class="change-color-in-svg" fill="#4D61FC" style="fill: rgb(0, 0, 0); baseline-shift: 0px; paint-order: normal; text-decoration: none solid rgb(61, 61, 61);"></path>
<path d="M980.67 941.06C993.29 941.06 1003.53 930.83 1003.53 918.2C1003.53 905.57 993.29 895.34 980.67 895.34C968.05 895.34 957.81 905.58 957.81 918.2C957.81 930.82 968.04 941.06 980.67 941.06Z" class="change-color-in-svg" fill="#4D61FC" style="fill: rgb(0, 0, 0); baseline-shift: 0px; paint-order: normal; text-decoration: none solid rgb(61, 61, 61);"></path>
<path opacity="0.4" d="M980.67 941.06C993.29 941.06 1003.53 930.83 1003.53 918.2C1003.53 905.57 993.29 895.34 980.67 895.34C968.05 895.34 957.81 905.58 957.81 918.2C957.81 930.82 968.04 941.06 980.67 941.06Z" fill="white" style="baseline-shift: 0px; fill: rgb(255, 255, 255); opacity: 0.4; paint-order: normal; text-decoration: none solid rgb(61, 61, 61);"></path>
<path d="M976.41 927.75L968.72 920.06C968.33 919.67 968.33 918.99 968.72 918.54L970.74 916.52C971.13 916.13 971.81 916.13 972.26 916.52L977.2 921.46L989.11 909.5C989.5 909.11 990.18 909.11 990.63 909.5L992.65 911.52C993.04 911.91 993.04 912.59 992.65 913.04L977.94 927.75C977.53 928.19 976.86 928.19 976.41 927.75Z" fill="white" style="baseline-shift: 0px; fill: rgb(255, 255, 255); paint-order: normal; text-decoration: none solid rgb(61, 61, 61);"></path>
<path d="M953.76 482.77C953.32 482.77 952.93 482.62 952.57 482.31C952.26 481.96 952.11 481.56 952.11 481.12V447H940.39C939.95 447 939.56 446.85 939.2 446.54C938.89 446.19 938.74 445.79 938.74 445.36V438.31C938.74 437.83 938.89 437.43 939.2 437.12C939.55 436.81 939.95 436.66 940.39 436.66H975.83C976.31 436.66 976.71 436.81 977.02 437.12C977.33 437.43 977.48 437.82 977.48 438.31V445.36C977.48 445.84 977.33 446.24 977.02 446.54C976.71 446.85 976.32 447 975.83 447H964.1V481.12C964.1 481.56 963.95 481.95 963.64 482.31C963.33 482.62 962.94 482.77 962.45 482.77H953.76ZM976.12 482.77C975.77 482.77 975.44 482.64 975.13 482.37C974.87 482.06 974.74 481.73 974.74 481.38C974.74 481.12 974.76 480.92 974.81 480.79L990.29 438.5C990.42 437.97 990.71 437.53 991.15 437.18C991.59 436.83 992.16 436.65 992.86 436.65H1002.6C1003.31 436.65 1003.88 436.82 1004.32 437.18C1004.76 437.53 1005.04 437.97 1005.17 438.5L1020.59 480.79L1020.72 481.38C1020.72 481.73 1020.56 482.06 1020.26 482.37C1019.99 482.63 1019.66 482.77 1019.27 482.77H1011.17C1010.11 482.77 1009.41 482.31 1009.06 481.39L1006.49 474.67H988.9L986.4 481.39C986.05 482.31 985.32 482.77 984.23 482.77H976.12ZM1003.86 465.18L997.73 447.79L991.6 465.18H1003.86ZM1042.39 483.42C1038.22 483.42 1034.64 482.81 1031.66 481.58C1028.67 480.35 1026.41 478.75 1024.87 476.77C1023.38 474.75 1022.59 472.56 1022.5 470.18C1022.5 469.83 1022.63 469.52 1022.9 469.26C1023.2 468.95 1023.56 468.8 1023.95 468.8H1032.25C1032.78 468.8 1033.19 468.91 1033.5 469.13C1033.85 469.3 1034.2 469.59 1034.56 469.99C1035.13 471.13 1036.05 472.08 1037.32 472.82C1038.6 473.57 1040.29 473.94 1042.39 473.94C1044.9 473.94 1046.81 473.55 1048.12 472.75C1049.44 471.96 1050.1 470.88 1050.1 469.52C1050.1 468.55 1049.75 467.76 1049.05 467.15C1048.39 466.54 1047.33 465.99 1045.89 465.5C1044.44 465.02 1042.28 464.47 1039.43 463.85C1034.16 462.75 1030.21 461.15 1027.57 459.04C1024.98 456.89 1023.69 453.84 1023.69 449.89C1023.69 447.21 1024.43 444.82 1025.93 442.71C1027.42 440.6 1029.55 438.95 1032.32 437.77C1035.08 436.58 1038.31 435.99 1042 435.99C1045.82 435.99 1049.13 436.65 1051.95 437.97C1054.76 439.29 1056.89 440.96 1058.33 442.98C1059.83 444.96 1060.62 446.91 1060.71 448.84C1060.71 449.24 1060.57 449.56 1060.31 449.83C1060.05 450.09 1059.72 450.23 1059.32 450.23H1050.63C1050.1 450.23 1049.66 450.14 1049.31 449.97C1049 449.79 1048.72 449.51 1048.45 449.11C1048.19 448.1 1047.47 447.24 1046.28 446.54C1045.14 445.84 1043.71 445.49 1042 445.49C1040.02 445.49 1038.51 445.84 1037.45 446.54C1036.4 447.24 1035.87 448.28 1035.87 449.64C1035.87 450.56 1036.16 451.33 1036.73 451.95C1037.34 452.56 1038.31 453.13 1039.63 453.66C1040.99 454.14 1042.92 454.65 1045.42 455.17C1049.51 455.92 1052.76 456.86 1055.17 458C1057.63 459.1 1059.43 460.55 1060.57 462.35C1061.72 464.11 1062.29 466.32 1062.29 469C1062.29 471.94 1061.43 474.51 1059.72 476.71C1058.05 478.86 1055.7 480.53 1052.67 481.72C1049.68 482.85 1046.26 483.42 1042.39 483.42ZM1070.53 482.77C1070.09 482.77 1069.69 482.62 1069.34 482.31C1069.03 481.96 1068.88 481.56 1068.88 481.12V438.3C1068.88 437.82 1069.03 437.42 1069.34 437.11C1069.69 436.8 1070.09 436.65 1070.53 436.65H1078.83C1079.31 436.65 1079.7 436.8 1080.01 437.11C1080.32 437.42 1080.47 437.81 1080.47 438.3V452.92L1092.66 437.9C1093.19 437.07 1094.04 436.65 1095.23 436.65H1104.71C1105.11 436.65 1105.44 436.8 1105.7 437.11C1105.96 437.37 1106.1 437.68 1106.1 438.03C1106.1 438.34 1106.03 438.6 1105.9 438.82L1090.09 458.71L1107.08 480.58C1107.26 480.76 1107.35 481.02 1107.35 481.37C1107.35 481.72 1107.22 482.05 1106.95 482.36C1106.69 482.62 1106.36 482.76 1105.96 482.76H1096.15C1095.1 482.76 1094.22 482.32 1093.51 481.44L1080.47 465.17V481.11C1080.47 481.59 1080.32 481.99 1080.01 482.3C1079.7 482.61 1079.31 482.76 1078.83 482.76H1070.53V482.77ZM1128.46 483.42C1124.29 483.42 1120.71 482.81 1117.73 481.58C1114.74 480.35 1112.48 478.75 1110.94 476.77C1109.45 474.75 1108.66 472.56 1108.57 470.18C1108.57 469.83 1108.7 469.52 1108.96 469.26C1109.27 468.95 1109.62 468.8 1110.02 468.8H1118.32C1118.85 468.8 1119.26 468.91 1119.57 469.13C1119.92 469.3 1120.27 469.59 1120.62 469.99C1121.19 471.13 1122.12 472.08 1123.39 472.82C1124.66 473.57 1126.35 473.94 1128.46 473.94C1130.97 473.94 1132.88 473.55 1134.19 472.75C1135.51 471.96 1136.17 470.88 1136.17 469.52C1136.17 468.55 1135.82 467.76 1135.12 467.15C1134.46 466.54 1133.4 465.99 1131.95 465.5C1130.5 465.02 1128.35 464.47 1125.5 463.85C1120.23 462.75 1116.28 461.15 1113.64 459.04C1111.05 456.89 1109.76 453.84 1109.76 449.89C1109.76 447.21 1110.5 444.82 1111.99 442.71C1113.49 440.6 1115.62 438.95 1118.38 437.77C1121.15 436.58 1124.38 435.99 1128.07 435.99C1131.89 435.99 1135.2 436.65 1138.01 437.97C1140.82 439.29 1142.95 440.96 1144.4 442.98C1145.9 444.96 1146.69 446.91 1146.77 448.84C1146.77 449.24 1146.64 449.56 1146.38 449.83C1146.12 450.09 1145.79 450.23 1145.39 450.23H1136.7C1136.17 450.23 1135.73 450.14 1135.38 449.97C1135.07 449.79 1134.79 449.51 1134.52 449.11C1134.26 448.1 1133.53 447.24 1132.35 446.54C1131.21 445.84 1129.78 445.49 1128.07 445.49C1126.09 445.49 1124.58 445.84 1123.52 446.54C1122.47 447.24 1121.94 448.28 1121.94 449.64C1121.94 450.56 1122.23 451.33 1122.8 451.95C1123.41 452.56 1124.38 453.13 1125.7 453.66C1127.06 454.14 1128.99 454.65 1131.49 455.17C1135.58 455.92 1138.83 456.86 1141.24 458C1143.7 459.1 1145.5 460.55 1146.64 462.35C1147.78 464.11 1148.36 466.32 1148.36 469C1148.36 471.94 1147.5 474.51 1145.79 476.71C1144.12 478.86 1141.77 480.53 1138.74 481.72C1135.75 482.85 1132.33 483.42 1128.46 483.42Z" fill="white" style="baseline-shift: 0px; fill: rgb(255, 255, 255); paint-order: normal; text-decoration: none solid rgb(61, 61, 61);"></path>
<path d="M756.03 259.34C743.83 256.98 737.09 269.86 733.89 286.37C730.69 302.88 732.47 313.26 744.67 315.62C756.87 317.98 768.63 310.23 771.83 293.72C775.03 277.21 768.23 261.71 756.03 259.34Z" fill="#3F4249" style="baseline-shift: 0px; fill: rgb(63, 66, 73); paint-order: normal; text-decoration: none solid rgb(61, 61, 61);"></path>
<path d="M783.49 990.7L852.43 992.24L827.16 973.45C824.73 971.7 823.06 969.26 822.04 966.51C820.92 963.52 822.09 961.42 822.4 959.76C823.24 955.28 825.53 940.74 825.53 940.74L786.94 940.84L783.49 990.7Z" fill="#F79898" style="baseline-shift: 0px; fill: rgb(247, 152, 152); paint-order: normal; text-decoration: none solid rgb(61, 61, 61);"></path>
<path opacity="0.15" d="M796.17 965.539V965.139C795.97 962.869 797.55 960.889 799.73 960.589L822.4 959.759L823.24 955.279H785.94L785.93 955.409L784.26 979.489L817.99 986.239L808.79 982.579C802.37 980.019 796.77 972.369 796.17 965.539Z" fill="black" style="baseline-shift: 0px; fill: rgb(0, 0, 0); opacity: 0.15; paint-order: normal; text-decoration: none solid rgb(61, 61, 61);"></path>
<path d="M710.55 986.55L742.09 982.39L743.95 955.29L744.63 940.51L707.47 940.76L707.95 955.29L710.55 986.55Z" fill="#F79898" style="baseline-shift: 0px; fill: rgb(247, 152, 152); paint-order: normal; text-decoration: none solid rgb(61, 61, 61);"></path>
<path opacity="0.15" d="M716.52 981.311L717.21 966.281C717.31 964.301 718.79 962.721 720.77 962.421L743.66 959.411L743.94 955.301H707.94L710.76 988.971L716.52 981.311Z" fill="black" style="baseline-shift: 0px; fill: rgb(0, 0, 0); opacity: 0.15; paint-order: normal; text-decoration: none solid rgb(61, 61, 61);"></path>
<path d="M688.62 555.79L707.94 955.29H743.94L758.74 629.58C758.94 627.4 760.72 625.82 762.89 625.82C764.97 625.82 766.75 627.4 766.95 629.58L799.86 774.56L785.93 955.29H823.23L850.31 783.15C851.18 777.6 851.36 771.97 850.82 766.38L829.47 541.59L688.62 555.79Z" class="change-color-in-svg" fill="#4D61FC" style="fill: rgb(0, 0, 0); baseline-shift: 0px; paint-order: normal; text-decoration: none solid rgb(61, 61, 61);"></path>
<path opacity="0.2" d="M688.52 564.861L707.94 955.301H743.94L758.74 629.591C758.94 627.411 760.72 625.831 762.89 625.831C764.97 625.831 766.75 627.411 766.95 629.591L799.86 774.571L785.93 955.301H823.23L850.6 781.311C851.28 776.991 851.41 772.601 851 768.251L831.85 566.631L688.61 555.811L688.52 564.861Z" fill="white" style="baseline-shift: 0px; fill: rgb(255, 255, 255); opacity: 0.2; paint-order: normal; text-decoration: none solid rgb(61, 61, 61);"></path>
<path d="M713.3 972.311L714.19 971.421C720.92 964.691 732.49 964.791 739.02 971.721L739.51 972.311C741.19 974.091 742.08 976.371 742.08 978.641V982.401C742.08 984.581 742.38 986.751 743.07 988.831L746.14 999.021C746.93 1001.49 747.33 1004.06 747.33 1006.64V1007.93C747.33 1009.91 745.55 1011.49 743.47 1011.49H707.96C705.78 1011.49 704.1 1009.91 704.1 1007.93V1007.44C704.1 1004.47 704.59 1001.51 705.58 998.641L709.14 988.651C709.93 986.381 710.43 984.001 710.43 981.531L710.53 978.661C710.63 976.361 711.62 974.091 713.3 972.311Z" fill="#3F4249" style="baseline-shift: 0px; fill: rgb(63, 66, 73); paint-order: normal; text-decoration: none solid rgb(61, 61, 61);"></path>
<path opacity="0.5" d="M704.1 1007.42V1007.91C704.1 1009.89 705.88 1011.47 707.96 1011.47H743.47C745.65 1011.47 747.33 1009.89 747.33 1007.91V1006.62C747.33 1006.13 747.33 1005.63 747.23 1005.14H704.1C704.1 1005.84 704.1 1006.63 704.1 1007.42Z" fill="black" style="baseline-shift: 0px; fill: rgb(0, 0, 0); opacity: 0.5; paint-order: normal; text-decoration: none solid rgb(61, 61, 61);"></path>
<path d="M781.89 979.33V1004.35C781.89 1008.41 785.15 1011.67 789.21 1011.67H874.27C875.95 1011.67 877.34 1010.29 877.34 1008.6C877.34 1002.67 873.48 997.32 867.84 995.44L848.65 989.11L824.32 970.219C821.85 968.239 818.29 968.34 815.81 970.42L805.03 979.62C803.45 981 801.27 981.4 799.29 980.81L785.64 976.56C783.67 976.06 781.89 977.45 781.89 979.33Z" fill="#3F4249" style="baseline-shift: 0px; fill: rgb(63, 66, 73); paint-order: normal; text-decoration: none solid rgb(61, 61, 61);"></path>
<path d="M789.21 1011.67H874.27C875.95 1011.67 877.34 1010.29 877.34 1008.6C877.34 1007.51 877.24 1006.52 876.94 1005.53H781.99C782.58 1009 785.55 1011.67 789.21 1011.67Z" fill="black" style="baseline-shift: 0px; fill: rgb(0, 0, 0); paint-order: normal; text-decoration: none solid rgb(61, 61, 61);"></path>
<path d="M823.83 980.219C823.63 980.219 823.43 980.119 823.34 980.019C823.04 979.719 823.04 979.229 823.34 978.929L828.48 973.389C828.78 973.089 829.27 973.089 829.57 973.389C829.87 973.689 829.87 974.179 829.57 974.479L824.43 980.019C824.23 980.119 824.03 980.219 823.83 980.219Z" fill="white" style="baseline-shift: 0px; fill: rgb(255, 255, 255); paint-order: normal; text-decoration: none solid rgb(61, 61, 61);"></path>
<path d="M827.89 983.379C827.69 983.379 827.49 983.279 827.4 983.179C827.1 982.879 827.1 982.389 827.4 982.089L832.54 976.549C832.84 976.249 833.33 976.249 833.63 976.549C833.93 976.849 833.93 977.339 833.63 977.639L828.49 983.179C828.28 983.279 828.08 983.379 827.89 983.379Z" fill="white" style="baseline-shift: 0px; fill: rgb(255, 255, 255); paint-order: normal; text-decoration: none solid rgb(61, 61, 61);"></path>
<path d="M831.94 986.549C831.74 986.549 831.54 986.449 831.45 986.349C831.15 986.049 831.15 985.559 831.45 985.259L836.59 979.719C836.89 979.419 837.38 979.419 837.68 979.719C837.98 980.019 837.98 980.509 837.68 980.809L832.54 986.349C832.44 986.449 832.24 986.549 831.94 986.549Z" fill="white" style="baseline-shift: 0px; fill: rgb(255, 255, 255); paint-order: normal; text-decoration: none solid rgb(61, 61, 61);"></path>
<path d="M733.09 980.709C732.99 980.709 732.79 980.709 732.69 980.609C725.96 977.249 719.63 980.609 719.63 980.609C719.23 980.809 718.64 980.709 718.44 980.209C718.24 979.809 718.34 979.219 718.84 979.019C719.14 978.819 725.96 975.259 733.58 979.019C733.98 979.219 734.17 979.809 733.98 980.209C733.78 980.519 733.48 980.709 733.09 980.709Z" fill="white" style="baseline-shift: 0px; fill: rgb(255, 255, 255); paint-order: normal; text-decoration: none solid rgb(61, 61, 61);"></path>
<path d="M733.09 985.26C732.99 985.26 732.79 985.26 732.69 985.16C725.87 981.8 719.63 985.16 719.63 985.16C719.23 985.36 718.64 985.26 718.44 984.76C718.24 984.36 718.34 983.77 718.84 983.57C719.14 983.37 725.96 979.81 733.58 983.57C733.98 983.77 734.17 984.36 733.98 984.76C733.78 985.07 733.48 985.26 733.09 985.26Z" fill="white" style="baseline-shift: 0px; fill: rgb(255, 255, 255); paint-order: normal; text-decoration: none solid rgb(61, 61, 61);"></path>
<path d="M733.09 989.709C732.99 989.709 732.79 989.709 732.69 989.609C725.96 986.249 719.63 989.609 719.63 989.609C719.23 989.809 718.64 989.709 718.44 989.209C718.24 988.809 718.34 988.219 718.84 988.019C719.14 987.819 725.96 984.259 733.58 988.019C733.98 988.219 734.17 988.809 733.98 989.209C733.78 989.519 733.48 989.709 733.09 989.709Z" fill="white" style="baseline-shift: 0px; fill: rgb(255, 255, 255); paint-order: normal; text-decoration: none solid rgb(61, 61, 61);"></path>
<path d="M789.36 303.92C789.36 303.92 754.56 271.38 747.12 301.48L745.01 309.23L733.41 354.57C733.18 355.74 778.45 366.88 778.54 365.39L779.32 357.29L781.37 333.2C782.25 331.25 782.99 328.98 783.5 326.36C786.2 314.49 789.36 303.92 789.36 303.92Z" fill="#F79898" style="baseline-shift: 0px; fill: rgb(247, 152, 152); paint-order: normal; text-decoration: none solid rgb(61, 61, 61);"></path>
<path d="M795.09 306.691C802.63 306.691 808.74 300.581 808.74 293.041C808.74 285.501 802.63 279.391 795.09 279.391C787.55 279.391 781.44 285.501 781.44 293.041C781.44 300.581 787.55 306.691 795.09 306.691Z" fill="#3F4249" style="baseline-shift: 0px; fill: rgb(63, 66, 73); paint-order: normal; text-decoration: none solid rgb(61, 61, 61);"></path>
<path d="M797.98 283.33C797.98 283.33 800.62 345.1 769.55 343.21C742.65 341.62 747.66 300.18 747.66 300.18L754.06 273.92L797.98 283.33Z" fill="#F79898" style="baseline-shift: 0px; fill: rgb(247, 152, 152); paint-order: normal; text-decoration: none solid rgb(61, 61, 61);"></path>
<path d="M753.59 294.069C750.52 308.279 754.58 317.479 754.58 317.479C787.89 319.379 791.77 326.319 791.77 326.319C791.77 326.319 786.66 342.129 772.6 343.039C758.54 343.949 739.94 331.769 743.56 313.479C744.45 308.959 756.6 285.949 756.6 285.949L753.59 294.069Z" fill="#3F4249" style="baseline-shift: 0px; fill: rgb(63, 66, 73); paint-order: normal; text-decoration: none solid rgb(61, 61, 61);"></path>
<path d="M772.48 328.15C765.22 327.77 763.32 320.2 763.79 319.98C764.25 319.86 777.2 325.61 777.32 326.06C777.34 326.49 774.52 328.41 772.48 328.15Z" fill="white" style="baseline-shift: 0px; fill: rgb(255, 255, 255); paint-order: normal; text-decoration: none solid rgb(61, 61, 61);"></path>
<path d="M806.1 275.671C807.93 266.251 799.78 256.751 787.91 254.451C776.04 252.151 764.93 257.921 763.1 267.331C761.28 276.751 769.42 286.251 781.29 288.551C793.17 290.861 804.27 285.091 806.1 275.671Z" fill="#3F4249" style="baseline-shift: 0px; fill: rgb(63, 66, 73); paint-order: normal; text-decoration: none solid rgb(61, 61, 61);"></path>
<path d="M757.86 259.99C750.42 258.55 742.92 264.99 741.1 274.37C739.28 283.75 743.44 294.56 750.88 296C758.32 297.44 766.21 288.97 768.03 279.59C769.86 270.21 765.3 261.43 757.86 259.99Z" fill="#3F4249" style="baseline-shift: 0px; fill: rgb(63, 66, 73); paint-order: normal; text-decoration: none solid rgb(61, 61, 61);"></path>
<path opacity="0.15" d="M744.63 311.171C744.63 311.171 747.12 311.851 748.68 311.051L743.13 316.821L744.63 311.171Z" fill="black" style="baseline-shift: 0px; fill: rgb(0, 0, 0); opacity: 0.15; paint-order: normal; text-decoration: none solid rgb(61, 61, 61);"></path>
<path d="M751.43 296.019C751.43 296.019 748.27 289.809 741.95 291.209C734.78 292.839 733.24 308.059 744.24 311.099C749.97 312.709 749.47 309.089 749.38 304.339C750.33 298.859 751.43 296.019 751.43 296.019Z" fill="#F79898" style="baseline-shift: 0px; fill: rgb(247, 152, 152); paint-order: normal; text-decoration: none solid rgb(61, 61, 61);"></path>
<path opacity="0.3" d="M740.91 295.03C742.23 294.48 743.35 294.39 744.28 294.78C745.21 295.16 745.96 296.01 746.41 297.31C746.86 298.61 746.99 300.04 746.69 301.6L746.54 302.88C746.46 303.27 746.12 303.5 745.73 303.43C745.34 303.35 745.11 303.01 745.18 302.62L745.33 301.34C745.41 300.95 745.59 298.97 745.11 297.77C744.78 296.9 744.29 296.3 743.74 295.99C743.18 295.78 742.36 295.82 741.49 296.16C741.16 296.3 740.69 296.11 740.56 295.78C740.39 295.64 740.56 295.27 740.91 295.03Z" fill="black" style="baseline-shift: 0px; fill: rgb(0, 0, 0); opacity: 0.3; paint-order: normal; text-decoration: none solid rgb(61, 61, 61);"></path>
<path d="M797.26 288.12C795.92 288.77 793.13 289.451 793.13 289.451C792.84 289.501 792.41 289.371 792.35 288.981C792.28 288.591 792.43 288.261 792.82 288.201C792.82 288.201 796.75 286.79 797.13 286.63C797.86 286.21 799.01 285.67 800.35 284.63C800.61 284.39 801.02 284.42 801.26 284.68C801.5 284.94 801.47 285.35 801.21 285.59C799.91 286.81 797.72 287.9 797.26 288.12Z" fill="#F79898" style="baseline-shift: 0px; fill: rgb(247, 152, 152); paint-order: normal; text-decoration: none solid rgb(61, 61, 61);"></path>
<path opacity="0.15" d="M779.87 349.659L780.77 340.439C776.92 342.919 771.1 344.299 762.92 341.809C762.92 341.809 757.34 340.299 751.93 335.869C751.55 335.509 751.29 335.429 750.97 335.599C750.71 335.839 750.75 336.129 750.95 336.389C751.94 337.629 756.02 340.759 762.91 343.159C771.56 351.419 779.87 349.659 779.87 349.659Z" fill="black" style="baseline-shift: 0px; fill: rgb(0, 0, 0); opacity: 0.15; paint-order: normal; text-decoration: none solid rgb(61, 61, 61);"></path>
<path d="M798.21 305.529L787.63 303.479L786.17 303.199L776.95 301.409L776.85 301.389L764.91 299.079C762.97 298.699 761.11 299.959 760.74 301.899L760.21 304.619C759.19 309.859 762.64 314.959 767.88 315.979C773.12 316.999 778.22 313.549 779.24 308.309L779.77 305.589C779.92 304.809 779.78 303.979 779.41 303.299L783.1 304.019C782.5 304.509 782.16 305.249 782.01 306.019L781.48 308.739C780.46 313.979 783.91 319.079 789.15 320.099C794.39 321.119 799.49 317.669 800.51 312.429L801.04 309.709C801.41 307.769 800.15 305.909 798.21 305.529ZM778.41 305.319L777.88 308.039C777.01 312.509 772.71 315.499 768.24 314.629C763.77 313.759 760.78 309.459 761.65 304.989L762.18 302.269C762.41 301.099 763.57 300.319 764.73 300.549L776.67 302.859L776.77 302.879C777.83 303.099 778.63 304.159 778.41 305.319ZM799.14 312.159C798.27 316.629 793.97 319.619 789.5 318.749C785.03 317.879 782.04 313.579 782.91 309.109L783.44 306.389C783.67 305.219 784.83 304.439 785.99 304.669L787.45 304.949L798.03 306.999C799.2 307.229 799.98 308.389 799.75 309.549L799.14 312.159Z" fill="#21252B" style="baseline-shift: 0px; fill: rgb(33, 37, 43); paint-order: normal; text-decoration: none solid rgb(61, 61, 61);"></path>
<g opacity="0.15" style="baseline-shift: 0px; opacity: 0.15; paint-order: normal; text-decoration: none solid rgb(61, 61, 61);">
<path opacity="0.15" d="M814.74 565.689H730.77C730.28 565.689 729.98 565.289 729.98 564.899C729.98 564.509 730.38 564.109 730.77 564.109H814.74C815.23 564.109 815.53 564.509 815.53 564.899C815.53 565.289 815.23 565.689 814.74 565.689Z" fill="black" style="baseline-shift: 0px; fill: rgb(0, 0, 0); opacity: 0.15; paint-order: normal; text-decoration: none solid rgb(61, 61, 61);"></path>
</g>
<path d="M909.82 393.11C909.74 396.1 912.12 398.49 915 398.57L922.31 398.76L923.63 416.53C923.71 417.86 924.9 419 926.23 419.04C927.67 419.08 928.81 418 928.95 416.56L930.49 399.64C930.5 399.42 930.72 399.2 931.06 399.21C931.28 399.22 931.5 399.44 931.6 399.67L932.28 416.43C932.35 417.98 933.54 419.23 935.09 419.27C936.64 419.31 938 418.13 938.04 416.46L939.03 399.52L938.05 416.02C937.89 417.79 939.41 419.38 941.18 419.43C942.84 419.47 944.2 418.29 944.47 416.63L946.45 399.83L945.02 412.32C944.87 413.87 946.05 415.34 947.6 415.38C948.93 415.41 950.06 414.56 950.32 413.23L952.7 402.65C953.33 399.89 952.4 396.99 950.34 395.16C942 387.52 929.85 385.76 919.74 390.94L910.27 392.58C910.06 392.45 909.83 392.78 909.82 393.11Z" fill="#FB9C9C" style="baseline-shift: 0px; fill: rgb(251, 156, 156); paint-order: normal; text-decoration: none solid rgb(61, 61, 61);"></path>
<g opacity="0.15" style="baseline-shift: 0px; opacity: 0.15; paint-order: normal; text-decoration: none solid rgb(61, 61, 61);">
<path opacity="0.15" d="M938.4 399.5L937.48 415.1L939.03 415.19L939.95 399.59L938.4 399.5Z" fill="black" style="baseline-shift: 0px; fill: rgb(0, 0, 0); opacity: 0.15; paint-order: normal; text-decoration: none solid rgb(61, 61, 61);"></path>
</g>
<g opacity="0.15" style="baseline-shift: 0px; opacity: 0.15; paint-order: normal; text-decoration: none solid rgb(61, 61, 61);">
<path opacity="0.15" d="M945.53 400.68L944.16 413.25L945.7 413.42L947.07 400.85L945.53 400.68Z" fill="black" style="baseline-shift: 0px; fill: rgb(0, 0, 0); opacity: 0.15; paint-order: normal; text-decoration: none solid rgb(61, 61, 61);"></path>
</g>
<path opacity="0.2" d="M922.31 398.859L915 398.669L919.54 394.569C920.45 393.709 921.99 394.299 922.06 395.629L922.31 398.859Z" fill="black" style="baseline-shift: 0px; fill: rgb(0, 0, 0); opacity: 0.2; paint-order: normal; text-decoration: none solid rgb(61, 61, 61);"></path>
<path d="M832.33 574.649H689.93L673.31 458.589L700.89 389.649L720.21 355.449L733.04 356.029C733.04 356.029 731.21 369.549 757.77 373.209C780.4 376.339 779.32 357.279 779.32 357.279L819.84 359.969L832.33 574.649Z" fill="#21252B" style="baseline-shift: 0px; fill: rgb(33, 37, 43); paint-order: normal; text-decoration: none solid rgb(61, 61, 61);"></path>
<path d="M778.78 364.58C780.15 357.53 771.03 349.84 758.42 347.39C745.81 344.94 734.48 348.68 733.11 355.72C731.74 362.77 740.86 370.46 753.47 372.91C766.08 375.36 777.41 371.62 778.78 364.58Z" fill="#F79898" style="baseline-shift: 0px; fill: rgb(247, 152, 152); paint-order: normal; text-decoration: none solid rgb(61, 61, 61);"></path>
<path d="M667.2 373.5L648.69 475.34C647.64 481.12 648.6 487.08 651.4 492.23L702.5 586.12C702.5 586.12 697.91 599.5 708.75 610.25C708.75 610.25 722.21 597.95 728.04 585.48L688.63 484.86L701.5 440.8L667.2 373.5Z" fill="#F79898" style="baseline-shift: 0px; fill: rgb(247, 152, 152); paint-order: normal; text-decoration: none solid rgb(61, 61, 61);"></path>
<path d="M808.43 436.959L848.56 435.029L839.9 379.649C838.18 368.619 829 360.279 817.86 359.609L779.13 357.279L808.43 436.959Z" fill="#21252B" style="baseline-shift: 0px; fill: rgb(33, 37, 43); paint-order: normal; text-decoration: none solid rgb(61, 61, 61);"></path>
<path d="M716.78 389.93L700.37 444.56H653.87L667.19 373.51C669.37 361.87 679.79 353.62 691.61 354.16L733.03 356.04L716.78 389.93Z" fill="#21252B" style="baseline-shift: 0px; fill: rgb(33, 37, 43); paint-order: normal; text-decoration: none solid rgb(61, 61, 61);"></path>
<path opacity="0.15" d="M815.09 408.5C820.31 418.76 823.37 429.98 824.08 441.47L831.85 566.61L850.86 766.81C851.36 772.11 851.2 777.46 850.37 782.72L823.22 955.3H804.13L833.46 774.86L812.13 574.65L807.78 394.17L815.09 408.5Z" fill="black" style="baseline-shift: 0px; fill: rgb(0, 0, 0); opacity: 0.15; paint-order: normal; text-decoration: none solid rgb(61, 61, 61);"></path>
<path opacity="0.15" d="M715.21 395.17L688.62 484.87L720.11 565.24H734.24L708.82 480.2L715.21 395.17Z" fill="black" style="baseline-shift: 0px; fill: rgb(0, 0, 0); opacity: 0.15; paint-order: normal; text-decoration: none solid rgb(61, 61, 61);"></path>
<path opacity="0.15" d="M756.18 628.01L756.15 628.03C747.68 632.75 742.24 641.5 741.75 651.18L726.37 955.29H743.94L758.86 629.92C758.94 628.08 760.16 626.49 761.91 625.93C759.91 626.32 757.97 627.02 756.18 628.01Z" fill="black" style="baseline-shift: 0px; fill: rgb(0, 0, 0); opacity: 0.15; paint-order: normal; text-decoration: none solid rgb(61, 61, 61);"></path>
<path opacity="0.15" d="M734.24 565.24L739.37 581.05C739.37 581.05 724.01 601.34 708.76 610.25C708.76 610.25 722.59 597.5 728.05 585.48L720.12 565.24H734.24Z" fill="black" style="baseline-shift: 0px; fill: rgb(0, 0, 0); opacity: 0.15; paint-order: normal; text-decoration: none solid rgb(61, 61, 61);"></path>
<path d="M406.28 641.479L420.8 569.869L420.36 569.789L405.84 641.389L406.28 641.479Z" fill="#3F4249" style="baseline-shift: 0px; fill: rgb(63, 66, 73); paint-order: normal; text-decoration: none solid rgb(61, 61, 61);"></path>
<path d="M402.24 545.76L401.79 545.77L403.7 638.82L404.15 638.81L402.24 545.76Z" fill="#3F4249" style="baseline-shift: 0px; fill: rgb(63, 66, 73); paint-order: normal; text-decoration: none solid rgb(61, 61, 61);"></path>
<path d="M380.95 562.859L380.6 563.139L402.79 591.019L403.14 590.739L380.95 562.859Z" fill="#3F4249" style="baseline-shift: 0px; fill: rgb(63, 66, 73); paint-order: normal; text-decoration: none solid rgb(61, 61, 61);"></path>
<path d="M394.97 659.29L397.2 655.99C399.43 652.69 400.58 648.78 400.58 644.77V636.84H409.13V644.77C409.13 648.78 410.29 652.7 412.51 655.99L414.74 659.29C419.37 666.24 420.8 674.88 418.75 682.98L416.26 692.78H393.46L390.97 682.98C388.92 674.88 390.43 666.24 394.97 659.29Z" fill="#858990" style="baseline-shift: 0px; fill: rgb(133, 137, 144); paint-order: normal; text-decoration: none solid rgb(61, 61, 61);"></path>
<path d="M394.97 659.29L397.2 655.99C399.43 652.69 400.58 648.78 400.58 644.77V636.84H403.07V644.05C403.07 648.5 401.73 652.87 399.33 656.61C395.59 663.47 395.59 671.31 396.93 677.72C397.73 681.55 399.25 685.2 401.29 688.5L402.98 691.26C403.6 692.24 404.67 692.86 405.83 692.86H393.36L390.87 683.06C388.92 674.88 390.43 666.24 394.97 659.29Z" fill="#61656D" style="baseline-shift: 0px; fill: rgb(97, 101, 109); paint-order: normal; text-decoration: none solid rgb(61, 61, 61);"></path>
<path d="M385.49 591.51L385.2 591.86L411.59 613.76L411.88 613.41L385.49 591.51Z" fill="#3F4249" style="baseline-shift: 0px; fill: rgb(63, 66, 73); paint-order: normal; text-decoration: none solid rgb(61, 61, 61);"></path>
<path d="M408.42 630.789L431.76 608.709L431.49 608.439L408.15 630.439L408.42 630.789Z" fill="#3F4249" style="baseline-shift: 0px; fill: rgb(63, 66, 73); paint-order: normal; text-decoration: none solid rgb(61, 61, 61);"></path>
<path d="M393.99 579.579L390.34 563.549C389 557.849 382.24 555.449 377.6 559.099C373.06 562.749 373.86 569.969 379.11 572.459L393.99 579.579Z" class="change-color-in-svg" fill="#4D61FC" style="fill: rgb(0, 0, 0); baseline-shift: 0px; paint-order: normal; text-decoration: none solid rgb(61, 61, 61);"></path>
<path opacity="0.3" d="M393.99 579.579L390.34 563.549C389 557.849 382.24 555.449 377.6 559.099C373.06 562.749 373.86 569.969 379.11 572.459L393.99 579.579Z" fill="white" style="baseline-shift: 0px; fill: rgb(255, 255, 255); opacity: 0.3; paint-order: normal; text-decoration: none solid rgb(61, 61, 61);"></path>
<path d="M374.67 565.419C374.67 568.269 376.27 571.119 379.21 572.459L394.08 579.589L377.69 559.109C375.56 560.699 374.58 563.109 374.67 565.419Z" class="change-color-in-svg" fill="#4D61FC" style="fill: rgb(0, 0, 0); baseline-shift: 0px; paint-order: normal; text-decoration: none solid rgb(61, 61, 61);"></path>
<path d="M402.45 572.46L412.96 550.73C416.7 542.98 411.09 533.99 402.45 533.99C393.9 533.99 388.2 542.99 391.94 550.73L402.45 572.46Z" class="change-color-in-svg" fill="#4D61FC" style="fill: rgb(0, 0, 0); baseline-shift: 0px; paint-order: normal; text-decoration: none solid rgb(61, 61, 61);"></path>
<path opacity="0.3" d="M402.45 572.46L412.96 550.73C416.7 542.98 411.09 533.99 402.45 533.99C393.9 533.99 388.2 542.99 391.94 550.73L402.45 572.46Z" fill="white" style="baseline-shift: 0px; fill: rgb(255, 255, 255); opacity: 0.3; paint-order: normal; text-decoration: none solid rgb(61, 61, 61);"></path>
<path opacity="0.3" d="M401.92 534.07L402.45 572.46L391.94 550.73C388.29 543.16 393.64 534.34 401.92 534.07Z" fill="white" style="baseline-shift: 0px; fill: rgb(255, 255, 255); opacity: 0.3; paint-order: normal; text-decoration: none solid rgb(61, 61, 61);"></path>
<path d="M414.12 601.4L429.35 583.23C434.78 576.73 431.58 566.75 423.38 564.7C415.19 562.65 407.62 569.87 409.31 578.15L414.12 601.4Z" class="change-color-in-svg" fill="#4D61FC" style="fill: rgb(0, 0, 0); baseline-shift: 0px; paint-order: normal; text-decoration: none solid rgb(61, 61, 61);"></path>
<path opacity="0.3" d="M409.31 578.159C407.62 569.879 415.19 562.659 423.38 564.709L414.03 601.309L409.31 578.159Z" fill="white" style="baseline-shift: 0px; fill: rgb(255, 255, 255); opacity: 0.3; paint-order: normal; text-decoration: none solid rgb(61, 61, 61);"></path>
<path d="M416.26 623.051L423.21 605.681C425.7 599.451 433.81 598.021 438.26 602.921C442.8 607.821 440.58 615.751 434.16 617.701L416.26 623.051Z" class="change-color-in-svg" fill="#4D61FC" style="fill: rgb(0, 0, 0); baseline-shift: 0px; paint-order: normal; text-decoration: none solid rgb(61, 61, 61);"></path>
<path opacity="0.3" d="M416.26 623.051L423.21 605.681C425.7 599.451 433.81 598.021 438.26 602.921C442.8 607.821 440.58 615.751 434.16 617.701L416.26 623.051Z" fill="white" style="baseline-shift: 0px; fill: rgb(255, 255, 255); opacity: 0.3; paint-order: normal; text-decoration: none solid rgb(61, 61, 61);"></path>
<path opacity="0.3" d="M437.99 602.56L416.26 623.039L423.21 605.669C425.61 599.619 433.45 598.11 437.99 602.56Z" fill="white" style="baseline-shift: 0px; fill: rgb(255, 255, 255); opacity: 0.3; paint-order: normal; text-decoration: none solid rgb(61, 61, 61);"></path>
<path d="M404.68 607.82L397.11 589.47C394.44 582.97 385.8 581.45 381.08 586.71C376.36 591.96 378.76 600.34 385.62 602.3L404.68 607.82Z" class="change-color-in-svg" fill="#4D61FC" style="fill: rgb(0, 0, 0); baseline-shift: 0px; paint-order: normal; text-decoration: none solid rgb(61, 61, 61);"></path>
<path opacity="0.3" d="M404.68 607.82L397.11 589.47C394.44 582.97 385.8 581.45 381.08 586.71C376.36 591.96 378.76 600.34 385.62 602.3L404.68 607.82Z" fill="white" style="baseline-shift: 0px; fill: rgb(255, 255, 255); opacity: 0.3; paint-order: normal; text-decoration: none solid rgb(61, 61, 61);"></path>
<path d="M403.79 630.351L404.06 629.991L367.9 610.221L367.72 610.581L403.79 630.351Z" fill="#3F4249" style="baseline-shift: 0px; fill: rgb(63, 66, 73); paint-order: normal; text-decoration: none solid rgb(61, 61, 61);"></path>
<path d="M398 626.88L384.91 608.98C380.28 602.57 370.48 603.28 366.83 610.23C363.09 617.18 367.99 625.64 375.83 625.99L398 626.88Z" class="change-color-in-svg" fill="#4D61FC" style="fill: rgb(0, 0, 0); baseline-shift: 0px; paint-order: normal; text-decoration: none solid rgb(61, 61, 61);"></path>
<path opacity="0.3" d="M398 626.88L384.91 608.98C380.28 602.57 370.48 603.28 366.83 610.23C363.09 617.18 367.99 625.64 375.83 625.99L398 626.88Z" fill="white" style="baseline-shift: 0px; fill: rgb(255, 255, 255); opacity: 0.3; paint-order: normal; text-decoration: none solid rgb(61, 61, 61);"></path>
<path d="M366.47 619.661C368.07 623.131 371.46 625.811 375.82 625.981L398 626.871L366.83 610.221C365.14 613.431 365.23 616.811 366.47 619.661Z" class="change-color-in-svg" fill="#4D61FC" style="fill: rgb(0, 0, 0); baseline-shift: 0px; paint-order: normal; text-decoration: none solid rgb(61, 61, 61);"></path>
<path opacity="0.3" d="M397.11 589.47L404.68 607.82L381.08 586.71C385.8 581.54 394.35 582.97 397.11 589.47Z" fill="white" style="baseline-shift: 0px; fill: rgb(255, 255, 255); opacity: 0.3; paint-order: normal; text-decoration: none solid rgb(61, 61, 61);"></path>
<path d="M1173 349.641H1164.9V373.311H1173V349.641Z" fill="white" style="baseline-shift: 0px; fill: rgb(255, 255, 255); paint-order: normal; text-decoration: none solid rgb(61, 61, 61);"></path>
<path d="M1040.12 349.641H1032.02V373.311H1040.12V349.641Z" fill="white" style="baseline-shift: 0px; fill: rgb(255, 255, 255); paint-order: normal; text-decoration: none solid rgb(61, 61, 61);"></path>
<path d="M1195.39 256.141H1095.07V339.381H1195.39V256.141Z" class="change-color-in-svg" fill="#4D61FC" style="fill: rgb(0, 0, 0); baseline-shift: 0px; paint-order: normal; text-decoration: none solid rgb(61, 61, 61);"></path>
<path opacity="0.8" d="M1195.39 256.141H1095.07V339.381H1195.39V256.141Z" fill="white" style="baseline-shift: 0px; fill: rgb(255, 255, 255); opacity: 0.8; paint-order: normal; text-decoration: none solid rgb(61, 61, 61);"></path>
<path d="M1186.1 265.67H1104.19V329.68H1186.1V265.67Z" fill="white" style="baseline-shift: 0px; fill: rgb(255, 255, 255); paint-order: normal; text-decoration: none solid rgb(61, 61, 61);"></path>
<path d="M1197.46 256.141H1195.3V339.381H1197.46V256.141Z" fill="#B1B5BA" style="baseline-shift: 0px; fill: rgb(177, 181, 186); paint-order: normal; text-decoration: none solid rgb(61, 61, 61);"></path>
<path opacity="0.2" d="M1113.82 319.17L1138.65 279.6L1176.63 319.17H1113.82Z" fill="black" style="baseline-shift: 0px; fill: rgb(0, 0, 0); opacity: 0.2; paint-order: normal; text-decoration: none solid rgb(61, 61, 61);"></path>
<path d="M1366.15 1012.95H233.73C233.38 1012.95 233.14 1012.71 233.14 1012.36C233.14 1012.01 233.38 1011.77 233.73 1011.77H1366.27C1366.62 1011.77 1366.86 1012.01 1366.86 1012.36C1366.86 1012.71 1366.51 1012.95 1366.15 1012.95Z" fill="#B2B6BB" style="baseline-shift: 0px; fill: rgb(178, 182, 187); paint-order: normal; text-decoration: none solid rgb(61, 61, 61);"></path>
<path d="M770.94 310.501C772.3 310.501 773.41 309.391 773.41 308.031C773.41 306.661 772.3 305.561 770.94 305.561C769.58 305.561 768.47 306.661 768.47 308.031C768.47 309.391 769.58 310.501 770.94 310.501Z" fill="#21252B" style="baseline-shift: 0px; fill: rgb(33, 37, 43); paint-order: normal; text-decoration: none solid rgb(61, 61, 61);"></path>
<path d="M772.16 307.951C772.43 307.951 772.65 307.731 772.65 307.461C772.65 307.191 772.43 306.971 772.16 306.971C771.89 306.971 771.67 307.191 771.67 307.461C771.67 307.731 771.89 307.951 772.16 307.951Z" fill="white" style="baseline-shift: 0px; fill: rgb(255, 255, 255); paint-order: normal; text-decoration: none solid rgb(61, 61, 61);"></path>
<path d="M790.15 314.321C791.51 314.321 792.62 313.211 792.62 311.851C792.62 310.491 791.51 309.381 790.15 309.381C788.79 309.381 787.68 310.491 787.68 311.851C787.68 313.211 788.79 314.321 790.15 314.321Z" fill="#21252B" style="baseline-shift: 0px; fill: rgb(33, 37, 43); paint-order: normal; text-decoration: none solid rgb(61, 61, 61);"></path>
<path d="M791.37 311.769C791.64 311.769 791.86 311.549 791.86 311.279C791.86 311.009 791.64 310.789 791.37 310.789C791.1 310.789 790.88 311.009 790.88 311.279C790.88 311.549 791.1 311.769 791.37 311.769Z" fill="white" style="baseline-shift: 0px; fill: rgb(255, 255, 255); paint-order: normal; text-decoration: none solid rgb(61, 61, 61);"></path>
<g opacity="0.15" style="baseline-shift: 0px; opacity: 0.15; paint-order: normal; text-decoration: none solid rgb(61, 61, 61);">
<path opacity="0.15" d="M777.88 319.44L774.83 318.6C774.47 318.48 774.29 318.11 774.32 317.72C774.44 317.36 774.81 317.18 775.2 317.21L778.25 318.05C779 318.21 779.85 317.79 780.01 317.04C780.17 316.29 779.75 315.44 779 315.28C778.64 315.16 778.46 314.79 778.49 314.4C778.52 314.01 778.98 313.86 779.37 313.89C780.85 314.3 781.74 315.82 781.42 317.32C780.87 318.95 779.35 319.84 777.88 319.44Z" fill="black" style="baseline-shift: 0px; fill: rgb(0, 0, 0); opacity: 0.15; paint-order: normal; text-decoration: none solid rgb(61, 61, 61);"></path>
</g>
</svg>